<?xml version="1.0" encoding="UTF-8" standalone="no"?>
<!DOCTYPE svg PUBLIC "-//W3C//DTD SVG 1.1//EN" "http://www.w3.org/Graphics/SVG/1.1/DTD/svg11.dtd">
<svg width="100%" height="100%" viewBox="0 0 108 109" version="1.1" xmlns="http://www.w3.org/2000/svg" xmlns:xlink="http://www.w3.org/1999/xlink" xml:space="preserve" xmlns:serif="http://www.serif.com/" style="fill-rule:evenodd;clip-rule:evenodd;stroke-linejoin:round;stroke-miterlimit:2;">
    <g transform="matrix(0.198265,0,0,0.212134,25.3466,87.8368)">
        <path d="M98.557,70.5C104.76,70.5 106.806,70.632 107.136,70.632C107.598,70.632 107.664,70.566 107.664,70.104L107.664,67.728C107.664,67.266 107.598,67.2 107.136,67.2C106.806,67.2 104.76,67.332 98.557,67.332L74.072,67.332C75.194,66.079 75.92,65.287 76.382,65.089C76.844,64.825 77.174,64.561 77.174,64.165C77.174,63.835 76.91,63.637 76.316,63.373C75.59,63.109 74.93,62.911 74.204,62.713L87.997,62.713C94.465,62.713 96.643,62.845 97.039,62.845C97.501,62.845 97.567,62.779 97.567,62.317C97.567,61.921 97.435,60.733 97.435,57.169L97.435,51.823C97.435,48.194 97.567,47.006 97.567,46.61C97.567,46.214 97.501,46.148 97.039,46.148C96.643,46.148 94.465,46.28 87.997,46.28L69.519,46.28C62.985,46.28 60.807,46.148 60.411,46.148C59.949,46.148 59.883,46.214 59.883,46.61C59.883,47.006 60.015,48.194 60.015,51.823L60.015,57.169C60.015,60.733 59.883,61.921 59.883,62.317C59.883,62.779 59.949,62.845 60.411,62.845C60.807,62.845 62.985,62.713 69.519,62.713L72.95,62.713C72.356,64.099 71.498,65.485 69.717,67.332L58.761,67.332C52.558,67.332 50.578,67.2 50.182,67.2C49.786,67.2 49.72,67.266 49.72,67.728L49.72,70.104C49.72,70.566 49.786,70.632 50.182,70.632C50.578,70.632 52.558,70.5 58.761,70.5L66.285,70.5C62.391,73.602 56.979,76.506 48.532,79.014C49.258,79.476 49.852,80.136 50.38,80.928C50.842,81.654 51.04,81.984 51.37,81.984C51.568,81.984 51.832,81.852 52.36,81.654C56.055,80.268 59.289,78.816 62.061,77.232L62.061,79.74C62.061,80.136 62.127,80.202 62.589,80.202C62.919,80.202 64.899,80.136 71.234,80.136L74.006,80.136C73.082,81.786 71.828,83.171 70.311,84.293C66.615,87.065 61.203,88.517 54.208,89.309C54.867,89.969 55.329,90.629 55.791,91.619C56.253,92.675 56.319,92.675 57.639,92.477C63.711,91.355 68.529,89.771 72.158,87.065C74.6,85.349 76.514,83.105 77.9,80.136L91.693,80.136C91.429,82.776 90.901,85.217 90.241,86.735C89.713,88.121 88.657,88.451 87.074,88.451C85.028,88.451 82.85,88.253 80.606,87.857C81.068,88.649 81.398,89.441 81.662,90.365C81.992,91.619 81.992,91.619 83.048,91.685C84.5,91.817 85.688,91.883 87.733,91.883C90.373,91.883 92.353,91.025 93.343,89.045C94.267,87.131 94.663,85.547 95.059,83.171C95.389,81.192 95.587,79.212 95.851,77.496L95.851,77.298C98.755,78.882 102.055,80.136 105.882,81.192C107.202,81.588 107.202,81.522 107.73,80.4C108.258,79.476 108.786,78.75 109.512,78.09C101.593,76.506 95.785,74.064 91.297,70.5L98.557,70.5ZM79.022,77.034L79.22,76.506C79.682,74.988 79.814,74.196 80.21,73.668C80.474,73.338 80.672,73.008 80.672,72.678C80.672,72.348 80.276,72.216 79.682,72.084C78.692,71.886 77.504,71.754 76.118,71.622C76.184,73.206 75.986,74.724 75.458,76.638L75.326,77.034L71.234,77.034C64.965,77.034 62.985,76.902 62.589,76.902C66.153,74.856 68.925,72.744 71.168,70.5L87.008,70.5C89.581,73.14 92.287,75.252 95.191,76.902C94.861,76.902 92.683,77.034 86.546,77.034L79.022,77.034ZM93.673,59.875L63.777,59.875L63.777,55.849L93.673,55.849L93.673,59.875ZM93.673,53.077L63.777,53.077L63.777,49.184L93.673,49.184L93.673,53.077ZM107.466,38.558C107.466,38.096 107.4,38.03 106.938,38.03C106.542,38.03 104.496,38.162 98.293,38.162L89.581,38.162C89.581,36.578 89.713,35.456 89.977,34.994C90.109,34.664 90.241,34.466 90.241,34.136C90.241,33.807 89.977,33.609 89.515,33.543C88.459,33.411 87.14,33.279 85.556,33.213C85.886,34.598 85.952,36.512 86.018,38.162L70.838,38.162C70.838,36.512 70.97,35.39 71.234,34.928C71.366,34.598 71.498,34.4 71.498,34.07C71.498,33.741 71.234,33.543 70.773,33.477C69.717,33.345 68.397,33.213 66.813,33.147C67.143,34.532 67.209,36.446 67.275,38.162L59.157,38.162C52.954,38.162 50.908,38.03 50.512,38.03C50.05,38.03 49.984,38.096 49.984,38.558L49.984,41C49.984,41.528 50.05,41.594 50.512,41.594C50.908,41.594 52.954,41.462 59.157,41.462L67.275,41.462C67.209,43.112 67.143,43.904 67.143,44.234C67.143,44.696 67.209,44.762 67.671,44.762L70.443,44.762C70.904,44.762 70.97,44.696 70.97,44.234C70.97,43.904 70.838,43.112 70.838,41.462L86.018,41.462C85.952,43.178 85.886,43.97 85.886,44.3C85.886,44.762 85.952,44.828 86.414,44.828L89.185,44.828C89.647,44.828 89.713,44.762 89.713,44.3C89.713,43.97 89.581,43.178 89.581,41.462L98.293,41.462C104.496,41.462 106.542,41.594 106.938,41.594C107.4,41.594 107.466,41.528 107.466,41L107.466,38.558Z" style="fill:rgb(183,198,200);fill-rule:nonzero;stroke:rgb(183,198,200);stroke-width:1.7px;"/>
        <path d="M235.762,65.221C235.762,64.825 235.696,64.759 235.234,64.759C234.904,64.759 232.661,64.891 225.929,64.891L213.126,64.891L213.126,59.875L222.431,59.875C229.031,59.875 231.275,60.007 231.605,60.007C232.133,60.007 232.199,59.941 232.199,59.479L232.199,57.169C232.199,56.707 232.133,56.641 231.605,56.641C231.275,56.641 229.031,56.773 222.431,56.773L213.126,56.773L213.126,51.823L222.431,51.823C229.031,51.823 231.275,51.955 231.605,51.955C232.133,51.955 232.199,51.889 232.199,51.427L232.199,49.118C232.199,48.656 232.133,48.59 231.605,48.59C231.275,48.59 229.031,48.722 222.431,48.722L213.126,48.722L213.126,43.838L225.533,43.838C232.199,43.838 234.31,43.97 234.706,43.97C235.168,43.97 235.234,43.904 235.234,43.376L235.234,41C235.234,40.604 235.168,40.538 234.706,40.538C234.31,40.538 232.199,40.67 225.533,40.67L213.786,40.67C214.578,39.548 215.172,38.558 215.898,37.304C216.228,36.776 216.69,35.918 217.086,35.654C217.416,35.456 217.746,35.192 217.746,34.862C217.746,34.598 217.548,34.334 217.086,34.136C215.964,33.741 214.644,33.279 213.258,32.949C213.06,34.136 212.664,35.258 212.07,36.512C211.542,37.7 210.75,39.218 209.694,40.67L195.043,40.67C195.769,39.746 196.363,38.822 196.891,38.03C197.683,36.974 198.409,35.984 198.871,35.654C199.333,35.324 199.531,35.06 199.531,34.796C199.531,34.532 199.267,34.202 198.937,34.07C197.815,33.609 196.495,33.213 195.109,32.883C194.779,34.07 194.383,34.994 193.327,36.842C191.083,40.67 186.529,46.346 180.59,50.24C181.316,50.833 181.844,51.493 182.372,52.351C182.702,52.879 182.9,53.143 183.164,53.143C183.428,53.143 183.692,52.945 184.154,52.549C186.331,50.569 188.311,48.59 190.093,46.676C190.027,48.458 189.961,50.569 189.961,52.549L189.961,60.337C189.961,65.353 189.829,67.266 189.829,67.662C189.829,68.124 189.895,68.19 190.357,68.19C190.687,68.19 193.129,68.058 199.795,68.058L225.929,68.058C232.661,68.058 234.904,68.19 235.234,68.19C235.696,68.19 235.762,68.124 235.762,67.662L235.762,65.221ZM209.562,64.891L193.657,64.891L193.657,59.875L209.562,59.875L209.562,64.891ZM209.562,56.773L193.657,56.773L193.657,51.823L209.562,51.823L209.562,56.773ZM209.562,48.722L193.657,48.722L193.657,43.838L209.562,43.838L209.562,48.722ZM229.625,76.77C235.894,76.77 238.072,76.902 238.402,76.902C238.864,76.902 238.93,76.836 238.93,76.374L238.93,73.668C238.93,73.272 238.864,73.206 238.402,73.206C238.072,73.206 235.894,73.338 229.625,73.338L212.466,73.338C212.466,72.15 212.466,70.962 212.664,70.632C212.862,70.302 213.06,70.104 213.06,69.774C213.06,69.51 212.928,69.312 212.334,69.18C211.41,69.048 209.958,68.916 208.374,68.784C208.638,70.236 208.638,72.15 208.638,73.338L192.205,73.338C185.935,73.338 183.824,73.206 183.428,73.206C182.966,73.206 182.9,73.272 182.9,73.668L182.9,76.374C182.9,76.836 182.966,76.902 183.428,76.902C183.824,76.902 185.935,76.77 192.205,76.77L205.338,76.77C198.871,81.786 191.215,85.085 181.316,87.461C181.976,88.121 182.438,88.847 182.834,89.705C183.428,90.959 183.56,90.959 184.814,90.629C194.185,87.857 202.698,83.897 208.77,77.826C208.704,86.867 208.44,91.091 208.44,92.345C208.44,92.741 208.506,92.807 208.968,92.807L212.136,92.807C212.598,92.807 212.664,92.741 212.664,92.345C212.664,91.091 212.334,86.867 212.334,77.826C218.537,83.897 226.589,88.121 236.752,90.893C238.072,91.289 238.138,91.223 238.732,89.969C239.194,88.979 239.722,88.187 240.514,87.461C229.559,85.151 222.431,81.984 215.568,76.77L229.625,76.77Z" style="fill:rgb(183,198,200);fill-rule:nonzero;stroke:rgb(183,198,200);stroke-width:1.7px;"/>
    </g>
    <g id="パス_896" transform="matrix(0.654451,0,0,0.654451,18.6208,13.39)">
        <path d="M27.09,78.375C27.748,64.079 39.689,52.675 54,52.675C68.312,52.675 80.253,64.079 80.911,78.375C64.269,87.939 43.732,87.939 27.09,78.375ZM54,3.281C41.334,3.282 30.911,13.705 30.911,26.371C30.911,39.038 41.334,49.461 54.001,49.461C66.667,49.461 77.09,39.038 77.091,26.372C77.091,26.371 77.091,26.371 77.091,26.37C77.091,13.704 66.668,3.281 54.002,3.281C54.001,3.281 54.001,3.281 54,3.281Z" style="fill:rgb(183,198,200);"/>
    </g>
    <g transform="matrix(1.91279,0,0,1.91279,-35.4616,-15.6739)">
        <circle cx="46.75" cy="30.391" r="19.304" style="fill:none;stroke:rgb(183,198,200);stroke-width:3.14px;stroke-linecap:round;stroke-miterlimit:1.5;"/>
    </g>
    <g transform="matrix(1.66637,-1.66637,0.691511,0.691511,-124.189,194.038)">
        <path d="M101.015,60.474C101.015,56.902 99.812,54.001 98.329,54.001C96.846,54.001 95.643,56.902 95.643,60.474L95.643,81.814C95.643,85.386 96.846,88.287 98.329,88.287C99.812,88.287 101.015,85.386 101.015,81.814L101.015,60.474Z" style="fill:rgb(183,198,200);"/>
    </g>
</svg>
