<?xml version="1.0" encoding="UTF-8" standalone="no"?><!DOCTYPE svg PUBLIC "-//W3C//DTD SVG 1.1//EN" "http://www.w3.org/Graphics/SVG/1.1/DTD/svg11.dtd"><svg width="100%" height="100%" viewBox="0 0 82 54" version="1.1" xmlns="http://www.w3.org/2000/svg" xmlns:xlink="http://www.w3.org/1999/xlink" xml:space="preserve" xmlns:serif="http://www.serif.com/" style="fill-rule:evenodd;clip-rule:evenodd;stroke-linejoin:round;stroke-miterlimit:2;"><path d="M81.25,14.74c0,-3.352 -2.765,-6.067 -6.174,-6.067c-3.407,-0 -6.172,2.715 -6.172,6.067c0,1.638 0.662,3.12 1.736,4.212c-4.198,8.546 -12.222,11.528 -18.44,8.827c-5.54,-2.406 -7.583,-9.29 -8.275,-14.623c2.257,-1.17 3.797,-3.496 3.797,-6.177c-0,-3.857 -3.177,-6.979 -7.097,-6.979c-3.923,0 -7.099,3.123 -7.099,6.979c0,2.681 1.54,5.007 3.799,6.177c-0.692,5.333 -2.738,12.217 -8.274,14.623c-6.219,2.701 -14.241,-0.281 -18.441,-8.827c1.071,-1.092 1.736,-2.574 1.736,-4.212c-0,-3.352 -2.765,-6.067 -6.174,-6.067c-3.41,-0 -6.172,2.715 -6.172,6.067c0,3.084 2.338,5.621 5.366,6.011l8.847,32.374l52.824,0l8.847,-32.374c3.025,-0.39 5.366,-2.927 5.366,-6.011Z" style="fill:#efd512;fill-rule:nonzero;"/></svg>