<?xml version="1.0" encoding="UTF-8" standalone="no"?>
<!DOCTYPE svg PUBLIC "-//W3C//DTD SVG 1.1//EN" "http://www.w3.org/Graphics/SVG/1.1/DTD/svg11.dtd">
<svg width="100%" height="100%" viewBox="0 0 108 109" version="1.1" xmlns="http://www.w3.org/2000/svg" xmlns:xlink="http://www.w3.org/1999/xlink" xml:space="preserve" xmlns:serif="http://www.serif.com/" style="fill-rule:evenodd;clip-rule:evenodd;stroke-linejoin:round;stroke-miterlimit:2;">
    <g transform="matrix(0.198265,0,0,0.212134,5.85789,87.8368)">
        <path d="M92.947,49.118C90.175,57.367 85.49,64.693 80.54,70.236C74.996,76.572 69.321,81.522 59.223,86.537C60.609,87.131 61.863,87.989 62.655,88.781C63.249,89.441 64.107,89.441 64.899,88.913C73.082,84.425 79.154,79.014 84.5,73.008C89.647,67.2 94.267,59.743 97.435,51.361C97.897,50.305 98.293,49.646 98.887,49.118C99.547,48.524 99.613,47.798 99.085,47.072C98.293,46.148 97.237,45.158 96.115,44.366C95.587,44.036 94.927,43.97 94.399,44.3C93.673,44.696 93.013,44.894 91.099,44.894L67.737,44.894C62.853,44.894 59.157,44.762 55.065,44.366C55.131,45.488 55.329,47.534 55.395,48.458C55.527,49.316 55.791,49.58 56.583,49.514C60.147,49.25 63.777,49.118 67.671,49.118L92.947,49.118ZM104.1,31.893C100.405,31.893 97.435,34.862 97.435,38.558C97.435,42.254 100.405,45.224 104.1,45.224C107.796,45.224 110.766,42.254 110.766,38.558C110.766,34.862 107.796,31.893 104.1,31.893ZM104.1,34.4C106.41,34.4 108.258,36.248 108.258,38.558C108.258,40.868 106.41,42.716 104.1,42.716C101.791,42.716 99.943,40.868 99.943,38.558C99.943,36.248 101.791,34.4 104.1,34.4Z" style="fill:rgb(183,198,200);fill-rule:nonzero;stroke:rgb(183,198,200);stroke-width:1.7px;"/>
        <path d="M156.251,78.882L156.251,82.776C156.251,83.435 156.317,83.633 156.911,83.633L160.342,83.633C161.002,83.633 161.2,83.435 161.2,82.71C161.068,79.344 160.87,74.79 160.87,69.708L160.87,56.443C160.87,52.879 160.936,49.382 161.002,46.016C161.002,45.29 160.87,45.092 160.21,45.092C156.779,45.224 152.489,45.224 148.529,45.224L134.01,45.224C130.314,45.224 126.75,45.224 123.385,45.092C122.857,45.092 122.659,45.224 122.659,45.818C122.791,49.382 122.791,52.879 122.791,56.377L122.791,69.378C122.791,74.988 122.725,79.344 122.527,83.501C122.527,84.161 122.725,84.293 123.451,84.359C124.375,84.425 125.694,84.359 126.552,84.359C127.344,84.293 127.476,84.161 127.476,83.369L127.476,78.882L156.251,78.882ZM156.251,74.658L127.41,74.658L127.41,49.448L156.251,49.448L156.251,74.658Z" style="fill:rgb(183,198,200);fill-rule:nonzero;stroke:rgb(183,198,200);stroke-width:1.7px;"/>
        <path d="M224.028,48.326C221.257,56.575 216.571,63.901 211.621,69.444C206.078,75.78 200.402,80.73 190.305,85.745C191.69,86.339 192.944,87.197 193.736,87.989C194.33,88.649 195.188,88.649 195.98,88.121C204.164,83.633 210.235,78.222 215.581,72.216C220.729,66.409 225.348,58.951 228.516,50.569C228.978,49.514 229.374,48.854 229.968,48.326C230.628,47.732 230.694,47.006 230.166,46.28C229.374,45.356 228.318,44.366 227.196,43.574C226.668,43.244 226.008,43.178 225.48,43.508C224.754,43.904 224.094,44.102 222.181,44.102L198.818,44.102C193.934,44.102 190.239,43.97 186.147,43.574C186.213,44.696 186.411,46.742 186.477,47.666C186.609,48.524 186.873,48.788 187.665,48.722C191.228,48.458 194.858,48.326 198.752,48.326L224.028,48.326Z" style="fill:rgb(183,198,200);fill-rule:nonzero;stroke:rgb(183,198,200);stroke-width:1.7px;"/>
        <path d="M273.446,61.789C275.492,59.875 277.868,57.103 279.782,54.859C280.97,53.473 281.96,52.615 282.62,52.285C283.412,51.889 283.544,51.427 282.818,50.701C281.96,49.844 280.178,48.59 278.66,47.864C277.868,50.042 276.878,51.493 275.756,52.813C268.827,61.261 260.049,68.454 248.896,74.592C250.084,75.054 251.14,75.78 251.866,76.572C252.13,76.902 252.658,77.034 253.12,76.77C258.729,73.668 264.339,69.774 269.157,65.287L269.157,80.4C269.157,83.369 269.091,86.471 268.959,89.507C268.959,90.101 269.157,90.299 269.685,90.299C270.675,90.365 271.862,90.365 272.786,90.299C273.38,90.299 273.578,90.101 273.512,89.507C273.446,86.603 273.446,83.171 273.446,80.268L273.446,61.789Z" style="fill:rgb(183,198,200);fill-rule:nonzero;stroke:rgb(183,198,200);stroke-width:1.7px;"/>
        <path d="M345.448,65.881C349.87,65.881 354.753,65.881 359.703,66.013C360.495,66.079 360.693,65.947 360.693,65.221C360.759,64.165 360.759,62.779 360.693,61.789C360.693,61.063 360.495,60.931 359.703,60.997C354.687,61.129 349.804,61.195 345.25,61.195L324.989,61.195C319.512,61.195 314.43,61.129 310.404,60.601C310.536,62.383 310.8,64.495 311.064,65.617C311.262,66.277 311.592,66.541 312.186,66.541C312.582,66.541 315.354,65.881 321.095,65.881L345.448,65.881Z" style="fill:rgb(183,198,200);fill-rule:nonzero;stroke:rgb(183,198,200);stroke-width:1.7px;"/>
        <path d="M406.362,53.143C406.362,47.798 406.56,45.356 406.956,44.432C407.352,43.508 407.55,42.848 406.56,42.518C405.372,42.188 402.864,41.858 401.083,41.66C401.545,43.772 401.743,46.874 401.743,53.209L401.743,71.952C401.743,76.44 401.677,77.694 401.479,78.486C401.347,79.08 401.215,79.542 401.611,80.136C402.271,81.06 403.26,81.984 404.184,82.71C404.712,83.171 405.372,83.171 405.966,82.644C406.494,82.116 406.89,81.918 408.144,81.192C412.302,78.816 415.998,76.374 419.561,73.8C423.125,71.16 426.689,67.926 429.989,64.561C430.715,63.835 430.649,63.439 430.385,62.845C429.725,61.591 429.395,60.139 429.263,58.687C425.369,63.373 421.409,67.002 417.582,69.708C414.084,72.282 410.718,74.394 406.362,76.704L406.362,53.143ZM387.157,45.752C387.685,47.996 387.751,49.712 387.751,52.615C387.751,59.743 386.365,65.089 384.188,69.708C381.812,74.856 378.05,78.75 373.562,81.984C374.948,82.38 376.07,82.842 377.06,83.633C377.588,84.095 378.182,84.029 378.908,83.369C382.802,80.07 385.97,76.572 388.345,71.622C390.787,66.738 392.173,61.063 392.437,53.539C392.503,50.899 392.701,49.316 393.097,48.392C393.427,47.6 393.361,47.006 392.635,46.742C391.513,46.346 389.467,45.95 387.157,45.752Z" style="fill:rgb(183,198,200);fill-rule:nonzero;stroke:rgb(183,198,200);stroke-width:1.7px;"/>
    </g>
    <g id="パス_896" transform="matrix(0.787037,0,0,0.787037,11.4996,17.6724)">
        <path d="M27.09,78.375C27.748,64.079 39.689,52.675 54,52.675C68.312,52.675 80.253,64.079 80.911,78.375C64.269,87.939 43.732,87.939 27.09,78.375ZM19.842,73.369C7.293,63.12 0,47.748 0,31.546C0,1.922 24.377,-22.454 54,-22.454C83.624,-22.454 108,1.922 108,31.546C108,47.748 100.708,63.12 88.159,73.369C86.445,64.054 80.999,55.832 73.091,50.619C80.525,44.769 84.873,35.816 84.873,26.356C84.873,9.42 70.936,-4.517 54,-4.517C37.064,-4.517 23.127,9.42 23.127,26.356C23.127,35.816 27.475,44.769 34.909,50.619C27.001,55.832 21.556,64.054 19.841,73.369L19.842,73.369ZM54,3.281C41.334,3.282 30.911,13.705 30.911,26.371C30.911,39.038 41.334,49.461 54.001,49.461C66.667,49.461 77.09,39.038 77.091,26.372C77.091,26.371 77.091,26.371 77.091,26.37C77.091,13.704 66.668,3.281 54.002,3.281C54.001,3.281 54.001,3.281 54,3.281Z" style="fill:rgb(183,198,200);"/>
    </g>
</svg>
