<?xml version="1.0" encoding="UTF-8" standalone="no"?>
<!DOCTYPE svg PUBLIC "-//W3C//DTD SVG 1.1//EN" "http://www.w3.org/Graphics/SVG/1.1/DTD/svg11.dtd">
<svg width="100%" height="100%" viewBox="0 0 108 109" version="1.1" xmlns="http://www.w3.org/2000/svg" xmlns:xlink="http://www.w3.org/1999/xlink" xml:space="preserve" xmlns:serif="http://www.serif.com/" style="fill-rule:evenodd;clip-rule:evenodd;stroke-linejoin:round;stroke-miterlimit:2;">
    <g transform="matrix(0.198265,0,0,0.212134,7.09534,87.8368)">
        <path d="M179.199,57.961C179.199,53.605 179.331,51.955 179.331,51.559C179.331,51.097 179.265,51.031 178.803,51.031C178.407,51.031 176.823,51.163 171.742,51.163L163.558,51.163C158.477,51.163 156.893,51.031 156.497,51.031C156.035,51.031 155.969,51.097 155.969,51.559C155.969,51.955 156.101,53.605 156.101,58.489L156.101,65.155C156.101,73.47 155.969,75.186 155.969,75.516C155.969,75.978 156.035,76.044 156.497,76.044L159.4,76.044C159.862,76.044 159.928,75.978 159.928,75.516L159.928,73.272L175.372,73.272L175.372,75.516C175.372,75.978 175.437,76.044 175.899,76.044L178.803,76.044C179.265,76.044 179.331,75.978 179.331,75.516C179.331,75.186 179.199,73.47 179.199,65.155L179.199,57.961ZM175.372,69.774L159.928,69.774L159.928,54.661L175.372,54.661L175.372,69.774ZM193.85,52.681C193.85,41.33 193.982,37.436 193.982,37.04C193.982,36.578 193.916,36.512 193.454,36.512C193.058,36.512 190.815,36.644 184.281,36.644L151.481,36.644C144.947,36.644 142.704,36.512 142.308,36.512C141.846,36.512 141.78,36.578 141.78,37.04C141.78,37.436 141.912,41.33 141.912,54.595L141.912,67.794C141.912,88.187 141.78,91.949 141.78,92.345C141.78,92.807 141.846,92.873 142.308,92.873L145.475,92.873C145.937,92.873 146.003,92.807 146.003,92.345L146.003,88.583L189.759,88.583L189.759,92.345C189.759,92.807 189.825,92.873 190.287,92.873L193.454,92.873C193.916,92.873 193.982,92.807 193.982,92.345C193.982,91.949 193.85,88.187 193.85,67.794L193.85,52.681ZM189.759,84.953L146.003,84.953L146.003,40.34L189.759,40.34L189.759,84.953Z" style="fill:rgb(183,198,200);fill-rule:nonzero;stroke:rgb(183,198,200);stroke-width:1.7px;"/>
        <path d="M318.451,78.09C318.451,75.054 318.583,73.668 318.583,73.272C318.583,72.876 318.517,72.81 318.055,72.81C317.659,72.81 315.481,72.942 309.013,72.942L290.864,72.942C284.397,72.942 282.219,72.81 281.823,72.81C281.361,72.81 281.295,72.876 281.295,73.272C281.295,73.668 281.427,75.054 281.427,78.816L281.427,82.446C281.427,90.233 281.295,91.487 281.295,91.817C281.295,92.279 281.361,92.345 281.823,92.345L284.859,92.345C285.321,92.345 285.387,92.279 285.387,91.817L285.387,89.111L314.491,89.111L314.491,91.553C314.491,92.015 314.557,92.081 315.019,92.081L318.055,92.081C318.517,92.081 318.583,92.015 318.583,91.553C318.583,91.223 318.451,89.969 318.451,82.248L318.451,78.09ZM314.491,85.745L285.387,85.745L285.387,76.308L314.491,76.308L314.491,85.745ZM302.216,51.559C302.612,51.361 302.81,51.163 302.81,50.833C302.81,50.503 302.48,50.174 301.886,50.042C300.698,49.712 299.51,49.448 298.124,49.184C297.728,50.042 296.87,51.097 295.88,52.087C290.138,57.697 281.823,62.779 269.218,66.607C269.944,67.2 270.604,68.058 271.066,68.982C271.726,70.17 271.726,70.17 272.98,69.708C283.671,65.947 292.58,60.601 299.312,53.935C305.384,60.535 315.877,66.211 326.898,69.378C328.086,69.708 328.086,69.708 328.746,68.52C329.34,67.398 329.934,66.541 330.726,65.881C318.517,63.373 308.155,58.027 301.82,51.691L302.216,51.559ZM328.482,40.34C328.482,39.878 328.416,39.812 327.888,39.812C327.558,39.812 325.71,39.944 319.903,39.944L306.703,39.944C307.099,39.152 307.429,38.36 307.759,37.568C308.221,36.446 308.419,36.05 308.683,35.786C309.013,35.456 309.277,35.192 309.277,34.796C309.277,34.532 309.013,34.268 308.551,34.136C307.627,33.807 306.439,33.543 304.856,33.279C304.724,34.466 304.394,35.522 304.13,36.248C302.744,40.076 300.962,43.442 297.53,46.94C298.256,47.204 298.982,47.666 299.576,48.194C300.104,48.656 300.368,48.854 300.632,48.854C300.83,48.854 301.094,48.656 301.49,48.194C302.942,46.544 304.064,44.894 304.988,43.31L310.597,43.31C311.983,45.818 313.171,48.656 314.161,51.889C314.293,52.417 314.425,52.417 315.283,52.153L317.329,51.493C318.055,51.229 318.121,51.097 317.989,50.701C316.999,47.864 315.877,45.488 314.623,43.31L319.903,43.31C325.71,43.31 327.558,43.442 327.888,43.442C328.416,43.442 328.482,43.376 328.482,42.914L328.482,40.34ZM298.784,40.34C298.784,39.878 298.718,39.812 298.19,39.812C297.86,39.812 296.408,39.944 291.458,39.944L282.153,39.944C282.681,39.02 283.143,38.03 283.671,37.04C284.199,36.116 284.331,35.786 284.661,35.522C285.057,35.192 285.255,34.928 285.255,34.664C285.255,34.334 285.057,34.07 284.595,33.939C283.539,33.609 282.285,33.279 280.767,32.949C280.503,34.334 280.173,35.258 279.777,36.05C277.203,41.528 274.563,45.158 270.142,49.052C270.934,49.382 271.528,49.778 272.254,50.503C272.716,50.965 272.98,51.229 273.178,51.229C273.441,51.229 273.639,50.965 274.101,50.569C276.279,48.458 278.259,46.082 280.107,43.31L284.727,43.31C286.179,45.95 287.367,48.986 288.291,51.955C288.423,52.483 288.621,52.483 289.479,52.219L291.59,51.559C292.184,51.361 292.316,51.163 292.184,50.767C291.128,47.864 289.94,45.554 288.621,43.31L291.458,43.31C296.408,43.31 297.86,43.442 298.19,43.442C298.718,43.442 298.784,43.376 298.784,42.914L298.784,40.34ZM312.115,64.561C312.115,64.099 312.049,64.033 311.587,64.033C311.257,64.033 309.607,64.165 304.262,64.165L295.286,64.165C289.94,64.165 288.291,64.033 287.961,64.033C287.499,64.033 287.433,64.099 287.433,64.561L287.433,67.2C287.433,67.662 287.499,67.728 287.961,67.728C288.291,67.728 289.94,67.596 295.286,67.596L304.262,67.596C309.607,67.596 311.257,67.728 311.587,67.728C312.049,67.728 312.115,67.662 312.115,67.2L312.115,64.561Z" style="fill:rgb(183,198,200);fill-rule:nonzero;stroke:rgb(183,198,200);stroke-width:1.7px;"/>
    </g>
    <g transform="matrix(0.189453,0,0,0.189453,5.50042,-6.7917)">
        <path d="M511.981,222.088C511.451,172.255 491.953,125.511 457.032,90.462C422,55.247 375.329,35.849 325.55,35.849L186.431,35.849C83.64,35.868 0,119.489 0,222.253C0,325.026 83.64,408.665 186.431,408.693L289.241,408.693C291.945,408.693 293.371,409.835 294.084,410.795C295.819,413.115 295.052,416.369 294.778,417.291C293.699,421.12 290.976,426.446 285.66,435.089C281.566,441.869 277.765,447.58 276.961,448.795C271.223,457.402 269.25,464.693 271.388,469.335C272.996,472.834 277.034,474.991 283.357,475.74C285.495,475.986 288.455,476.151 291.27,476.151C292.75,476.151 294.175,476.105 295.436,476.005C308.557,474.881 326.283,472.797 347.005,466.576C377.211,457.494 420.503,438.242 455.278,398.076C492.483,355.233 512.11,295.815 512,226.237L511.981,222.088ZM454.272,338.64C435.796,375.425 406.832,403.475 368.183,422.032C355.117,428.272 341.119,433.253 326.555,436.834L322.809,437.756L325.239,432.438C326.135,430.52 327.03,428.61 327.743,426.609C329.095,422.497 330.429,417.983 330.484,412.118C330.484,407.239 329.405,402.304 327.359,397.855C324.069,390.673 317.784,384.35 310.053,380.513C302.195,376.566 292.913,374.647 281.691,374.647L186.429,374.647C145.751,374.647 107.486,358.794 78.667,330.013C49.885,301.213 34.043,262.938 34.024,222.251C34.043,181.591 49.886,143.326 78.667,114.508C107.485,85.736 145.751,69.882 186.429,69.882L325.55,69.882C366.082,69.891 404.219,85.735 432.91,114.489C461.509,143.234 477.499,181.572 477.937,222.425L477.974,226.235C477.936,269.5 469.97,307.318 454.272,338.64Z" style="fill:rgb(183,198,200);fill-rule:nonzero;"/>
    </g>
    <g transform="matrix(3.0603,0,0,3.27438,-65.8847,-85.9587)">
        <path d="M44.445,41.074C44.551,41.394 44.983,41.554 45.741,41.554L45.741,42.866L39.325,42.866L39.325,41.554L40.557,41.554C40.866,41.554 41.021,41.458 41.021,41.266C41.021,41.224 41.005,41.16 40.973,41.074L40.525,39.794L36.205,39.794L35.805,40.946C35.773,41.032 35.757,41.101 35.757,41.154C35.757,41.421 35.997,41.554 36.477,41.554L37.389,41.554L37.389,42.866L32.861,42.866L32.845,41.554C33.303,41.554 33.637,41.514 33.845,41.434C34.053,41.354 34.183,41.24 34.237,41.09L37.821,30.978L41.053,30.978L44.445,41.074ZM36.669,38.386L40.109,38.386L38.445,33.17L36.669,38.386Z" style="fill:rgb(183,198,200);fill-rule:nonzero;stroke:rgb(183,198,200);stroke-width:0.11px;"/>
    </g>
</svg>
