<?xml version="1.0" encoding="UTF-8" standalone="no"?>
<!DOCTYPE svg PUBLIC "-//W3C//DTD SVG 1.1//EN" "http://www.w3.org/Graphics/SVG/1.1/DTD/svg11.dtd">
<svg width="100%" height="100%" viewBox="0 0 108 109" version="1.1" xmlns="http://www.w3.org/2000/svg" xmlns:xlink="http://www.w3.org/1999/xlink" xml:space="preserve" xmlns:serif="http://www.serif.com/" style="fill-rule:evenodd;clip-rule:evenodd;stroke-linejoin:round;stroke-miterlimit:2;">
    <g transform="matrix(0.198265,0,0,0.212134,6.25359,87.8368)">
        <path d="M109.731,59.281C105.903,56.641 101.085,53.869 97.323,51.889C96.861,51.625 96.597,51.559 96.267,51.889C95.673,52.549 94.75,53.803 93.76,55.057C98.511,57.367 103.065,60.271 107.091,63.109C100.095,72.414 92.11,79.806 81.55,85.877C82.87,86.207 84.19,86.999 85.246,87.923C85.84,88.451 86.5,88.253 87.16,87.857C95.739,82.512 103.593,75.186 110.787,65.881C114.02,68.388 117.254,71.556 120.29,75.12C120.686,75.582 121.016,75.648 121.478,75.186C122.27,74.328 122.996,73.602 123.722,72.612C124.052,72.15 124.118,71.886 123.656,71.358C120.488,67.926 116.99,64.825 113.36,62.119C116.33,57.895 119.168,52.879 121.742,47.534C122.996,45.29 123.788,44.036 124.58,43.508C125.174,43.046 125.438,42.254 124.646,41.66C123.524,40.736 121.28,39.68 119.168,38.822C118.904,41.462 118.31,43.442 116.924,46.544C115.208,50.437 112.634,54.925 109.731,59.281Z" style="fill:rgb(183,198,200);fill-rule:nonzero;stroke:rgb(183,198,200);stroke-width:1.7px;"/>
        <path d="M151.764,56.971C154.073,59.809 156.053,63.505 157.439,66.804C157.637,67.332 157.901,67.596 158.495,67.332C159.353,67.002 160.145,66.672 161.003,66.145C161.597,65.749 161.597,65.617 161.333,64.957C159.881,61.393 158.099,58.489 155.921,55.717C155.525,55.255 155.261,55.123 154.733,55.387C153.941,55.783 152.951,56.311 151.764,56.971ZM164.633,53.869C166.877,56.905 168.328,60.007 169.714,63.637C169.978,64.231 170.176,64.429 170.638,64.231C171.628,63.835 172.552,63.373 173.278,62.977C173.806,62.713 173.938,62.449 173.74,61.921C172.486,58.621 170.638,55.255 168.79,52.747C168.46,52.219 168.131,52.153 167.669,52.351C166.877,52.681 166.019,53.143 164.633,53.869ZM185.091,53.407C184.827,55.651 184.563,57.103 183.97,58.819C181.858,64.495 178.558,70.5 174.994,75.054C170.902,80.268 167.075,83.699 160.211,88.187C161.597,88.517 162.653,89.045 163.643,89.837C164.039,90.233 164.633,90.101 165.095,89.771C170.506,86.141 174.334,82.512 178.426,77.232C182.122,72.546 185.289,66.672 188.127,60.205C188.919,58.489 189.381,57.631 190.041,57.037C190.635,56.509 190.569,55.915 189.975,55.453C188.919,54.661 186.741,53.869 185.091,53.407Z" style="fill:rgb(183,198,200);fill-rule:nonzero;stroke:rgb(183,198,200);stroke-width:1.7px;"/>
        <path d="M227.593,56.773L221.125,58.291C216.242,59.479 212.81,60.205 208.85,60.601C209.312,61.987 209.972,63.769 210.566,64.957C210.896,65.617 211.16,65.749 212.018,65.419C214.394,64.495 217.759,63.505 221.983,62.449L227.593,61.063L227.593,76.242C227.593,83.567 230.827,86.273 242.376,86.273C249.306,86.273 253.661,85.943 257.357,85.481C258.083,85.415 258.347,85.217 258.347,84.623C258.347,83.699 258.149,82.644 258.017,81.654C257.885,80.928 257.819,80.664 257.027,80.796C253.199,81.522 247.854,82.05 242.112,82.05C234.126,82.05 232.081,80.73 232.081,75.978L232.081,60.007L254.651,54.397C252.077,59.743 247.788,65.287 242.64,69.444C243.894,69.708 245.016,70.17 246.072,70.764C246.798,71.226 247.26,71.094 247.92,70.5C252.473,66.277 255.905,61.129 258.677,55.915C259.139,54.991 259.535,54.529 260.327,53.869C260.987,53.341 261.185,52.615 260.525,51.955C259.667,51.031 258.479,50.042 257.489,49.514C256.829,49.184 256.301,49.118 255.773,49.58C254.981,50.24 254.387,50.569 251.351,51.229L232.081,55.783L232.081,48.722C232.081,44.63 232.411,42.65 232.873,41.66C233.269,40.868 233.203,40.142 232.279,39.812C230.959,39.416 228.913,39.086 226.801,38.888C227.461,41.66 227.593,43.904 227.593,48.788L227.593,56.773Z" style="fill:rgb(183,198,200);fill-rule:nonzero;stroke:rgb(183,198,200);stroke-width:1.7px;"/>
        <path d="M312.926,65.881C317.347,65.881 322.231,65.881 327.181,66.013C327.973,66.079 328.171,65.947 328.171,65.221C328.237,64.165 328.237,62.779 328.171,61.789C328.171,61.063 327.973,60.931 327.181,60.997C322.165,61.129 317.281,61.195 312.728,61.195L292.467,61.195C286.989,61.195 281.908,61.129 277.882,60.601C278.014,62.383 278.278,64.495 278.542,65.617C278.74,66.277 279.07,66.541 279.664,66.541C280.06,66.541 282.831,65.881 288.573,65.881L312.926,65.881Z" style="fill:rgb(183,198,200);fill-rule:nonzero;stroke:rgb(183,198,200);stroke-width:1.7px;"/>
        <path d="M344.274,58.753C348.629,60.403 352.787,62.581 356.417,65.419C356.945,65.881 357.275,65.815 357.671,65.287C358.265,64.495 358.925,63.373 359.387,62.449C359.651,61.921 359.717,61.525 359.057,61.063C355.493,58.621 351.731,56.641 347.442,55.057C346.914,54.925 346.584,55.057 346.32,55.519C345.858,56.179 345.132,57.499 344.274,58.753ZM352.061,43.574C356.351,45.422 360.641,48.062 363.875,51.031C364.402,51.493 364.666,51.625 365.062,51.163C365.722,50.437 366.448,49.184 366.976,48.326C367.306,47.732 367.372,47.468 366.778,47.006C363.215,44.3 359.387,41.858 355.295,40.142C354.701,39.878 354.503,39.878 354.107,40.472C353.447,41.396 352.721,42.65 352.061,43.574ZM349.619,83.369C350.609,84.953 351.863,86.801 352.721,87.791C353.315,88.451 353.975,88.583 354.569,87.989C355.229,87.263 356.285,86.537 357.737,85.745C364.666,81.852 371.134,77.958 377.008,73.404C383.145,68.718 388.887,63.703 394.431,57.235C394.959,56.641 395.091,56.113 394.761,55.453C394.101,53.935 393.771,52.879 393.507,51.163C387.567,58.621 380.374,65.023 374.698,69.444C368.494,74.196 362.621,77.628 356.549,80.796C353.975,82.116 351.929,82.842 349.619,83.369ZM380.44,39.35C383.409,41.462 386.181,44.564 388.095,47.798C388.293,48.128 388.623,48.194 388.953,47.93L390.867,46.346C391.131,46.148 391.197,45.884 390.999,45.62C389.085,42.716 386.181,39.482 383.541,37.634C383.277,37.436 383.079,37.436 382.815,37.634L380.44,39.35ZM386.247,34.928C389.349,37.238 392.187,40.472 393.837,43.178C394.101,43.574 394.365,43.574 394.629,43.31L396.411,41.726C396.741,41.462 396.806,41.264 396.609,40.934C394.695,38.162 391.725,35.258 389.085,33.213C388.821,33.015 388.623,33.081 388.359,33.279L386.247,34.928Z" style="fill:rgb(183,198,200);fill-rule:nonzero;stroke:rgb(183,198,200);stroke-width:1.7px;"/>
    </g>
    <g transform="matrix(1,0,0,1,1.06581e-14,-7.28951)">
        <path d="M107.998,64.081C107.933,58.017 105.561,52.33 101.312,48.065C97.049,43.78 91.37,41.42 85.313,41.42L68.386,41.42C55.879,41.422 45.702,51.597 45.702,64.101C45.702,76.606 55.879,86.783 68.386,86.786L80.895,86.786C81.224,86.786 81.398,86.925 81.485,87.042C81.696,87.324 81.603,87.72 81.569,87.832C81.438,88.298 81.107,88.946 80.46,89.998C79.962,90.823 79.499,91.518 79.401,91.666C78.703,92.713 78.463,93.6 78.723,94.165C78.919,94.591 79.41,94.853 80.18,94.944C80.44,94.974 80.8,94.994 81.142,94.994C81.322,94.994 81.496,94.989 81.649,94.977C83.246,94.84 85.403,94.586 87.924,93.829C91.599,92.724 96.867,90.382 101.098,85.494C105.625,80.281 108.013,73.052 108,64.586L107.998,64.081ZM100.976,78.262C98.728,82.738 95.203,86.151 90.501,88.409C88.911,89.169 87.208,89.775 85.436,90.21L84.98,90.323L85.276,89.675C85.385,89.442 85.493,89.21 85.58,88.966C85.745,88.466 85.907,87.917 85.914,87.203C85.914,86.609 85.782,86.009 85.534,85.468C85.133,84.594 84.368,83.824 83.428,83.357C82.472,82.877 81.342,82.644 79.977,82.644L68.386,82.644C63.436,82.644 58.78,80.715 55.274,77.213C51.771,73.708 49.844,69.051 49.842,64.101C49.844,59.153 51.772,54.497 55.274,50.991C58.78,47.49 63.436,45.561 68.386,45.561L85.313,45.561C90.245,45.562 94.886,47.49 98.377,50.989C101.856,54.486 103.802,59.151 103.855,64.122L103.86,64.585C103.855,69.85 102.886,74.451 100.976,78.262ZM42.153,69.003L33.454,69.003C33.048,69.003 32.834,69.174 32.727,69.318C32.466,69.667 32.582,70.155 32.623,70.294C32.785,70.869 33.194,71.669 33.992,72.967C34.607,73.985 35.178,74.843 35.298,75.025C36.16,76.318 36.456,77.413 36.135,78.11C35.894,78.635 35.287,78.959 34.338,79.072C34.017,79.109 33.572,79.133 33.149,79.133C32.927,79.133 32.713,79.127 32.524,79.112C30.553,78.943 27.891,78.63 24.779,77.695C20.243,76.332 13.741,73.44 8.519,67.408C2.931,60.974 -0.016,52.05 0,41.601L0.003,40.978C0.083,33.494 3.011,26.474 8.255,21.21C13.516,15.922 20.525,13.009 28.001,13.009L48.894,13.009C63.118,13.011 74.899,23.672 76.664,37.42L71.504,37.42C70.76,32.673 68.544,28.291 65.078,24.822C60.75,20.501 55.004,18.12 48.895,18.12L28.001,18.12C21.914,18.121 16.187,20.5 11.878,24.819C7.583,29.136 5.181,34.893 5.116,41.029L5.11,41.601C5.116,48.098 6.312,53.778 8.67,58.482C11.444,64.006 15.794,68.219 21.599,71.006C23.561,71.943 25.663,72.691 27.85,73.229L28.413,73.367L28.048,72.569C27.913,72.281 27.779,71.994 27.672,71.693C27.469,71.076 27.269,70.398 27.26,69.517C27.26,68.784 27.422,68.043 27.73,67.375C28.224,66.296 29.168,65.347 30.329,64.77C31.509,64.178 32.903,63.889 34.588,63.889L41.703,63.889C41.702,63.96 41.702,64.03 41.702,64.101C41.702,65.775 41.857,67.413 42.153,69.003ZM64.851,61.696C66.575,61.696 67.974,63.095 67.974,64.819C67.974,66.542 66.575,67.942 64.851,67.942C63.127,67.942 61.728,66.542 61.728,64.819C61.728,63.095 63.127,61.696 64.851,61.696ZM76.851,61.696C78.574,61.696 79.974,63.095 79.974,64.819C79.974,66.542 78.574,67.942 76.851,67.942C75.127,67.942 73.728,66.542 73.728,64.819C73.728,63.095 75.127,61.696 76.851,61.696ZM88.851,61.696C90.574,61.696 91.974,63.095 91.974,64.819C91.974,66.542 90.574,67.942 88.851,67.942C87.127,67.942 85.728,66.542 85.728,64.819C85.728,63.095 87.127,61.696 88.851,61.696ZM21.467,39.292C23.889,39.292 25.856,41.259 25.856,43.682C25.856,46.104 23.889,48.071 21.467,48.071C19.044,48.071 17.077,46.104 17.077,43.682C17.077,41.259 19.044,39.292 21.467,39.292ZM38.332,39.292C40.755,39.292 42.721,41.259 42.721,43.682C42.721,46.104 40.755,48.071 38.332,48.071C35.91,48.071 33.943,46.104 33.943,43.682C33.943,41.259 35.91,39.292 38.332,39.292ZM51.673,46.297C51.13,45.566 50.808,44.661 50.808,43.682C50.808,41.259 52.775,39.292 55.198,39.292C56.841,39.292 58.274,40.197 59.026,41.535C56.289,42.674 53.803,44.297 51.673,46.297Z" style="fill:rgb(183,198,200);"/>
    </g>
</svg>
