<?xml version="1.0" encoding="UTF-8" standalone="no"?>
<!DOCTYPE svg PUBLIC "-//W3C//DTD SVG 1.1//EN" "http://www.w3.org/Graphics/SVG/1.1/DTD/svg11.dtd">
<svg width="100%" height="100%" viewBox="0 0 108 109" version="1.1" xmlns="http://www.w3.org/2000/svg" xmlns:xlink="http://www.w3.org/1999/xlink" xml:space="preserve" xmlns:serif="http://www.serif.com/" style="fill-rule:evenodd;clip-rule:evenodd;stroke-linejoin:round;stroke-miterlimit:2;">
    <g transform="matrix(0.198265,0,0,0.212134,5.86247,87.8368)">
        <path d="M93.079,49.118C90.307,57.367 85.622,64.693 80.672,70.236C75.128,76.572 69.453,81.522 59.355,86.537C60.741,87.131 61.995,87.989 62.787,88.781C63.381,89.441 64.239,89.441 65.031,88.913C73.214,84.425 79.286,79.014 84.632,73.008C89.779,67.2 94.399,59.743 97.567,51.361C98.029,50.305 98.425,49.646 99.019,49.118C99.679,48.524 99.745,47.798 99.217,47.072C98.425,46.148 97.369,45.158 96.247,44.366C95.719,44.036 95.059,43.97 94.531,44.3C93.805,44.696 93.145,44.894 91.231,44.894L67.869,44.894C62.985,44.894 59.289,44.762 55.197,44.366C55.263,45.488 55.461,47.534 55.527,48.458C55.659,49.316 55.923,49.58 56.715,49.514C60.279,49.25 63.909,49.118 67.803,49.118L93.079,49.118ZM95.191,37.766C98.161,39.878 100.933,42.98 102.847,46.214C103.045,46.544 103.375,46.61 103.704,46.346L105.618,44.762C105.882,44.564 105.948,44.3 105.75,44.036C103.836,41.132 100.933,37.898 98.293,36.05C98.029,35.852 97.831,35.786 97.501,36.05L95.191,37.766ZM100.999,33.345C104.1,35.654 106.938,38.888 108.588,41.594C108.852,41.99 109.116,41.99 109.38,41.726L111.162,40.142C111.492,39.878 111.558,39.68 111.36,39.35C109.446,36.578 106.476,33.675 103.836,31.629C103.572,31.431 103.375,31.497 103.111,31.695L100.999,33.345Z" style="fill:rgb(183,198,200);fill-rule:nonzero;stroke:rgb(183,198,200);stroke-width:1.7px;"/>
        <path d="M117.914,56.971C120.224,59.809 122.203,63.505 123.589,66.804C123.787,67.332 124.051,67.596 124.645,67.332C125.503,67.002 126.295,66.672 127.153,66.145C127.747,65.749 127.747,65.617 127.483,64.957C126.031,61.393 124.249,58.489 122.072,55.717C121.676,55.255 121.412,55.123 120.884,55.387C120.092,55.783 119.102,56.311 117.914,56.971ZM130.783,53.869C133.027,56.905 134.479,60.007 135.865,63.637C136.129,64.231 136.327,64.429 136.789,64.231C137.779,63.835 138.702,63.373 139.428,62.977C139.956,62.713 140.088,62.449 139.89,61.921C138.636,58.621 136.789,55.255 134.941,52.747C134.611,52.219 134.281,52.153 133.819,52.351C133.027,52.681 132.169,53.143 130.783,53.869ZM151.242,53.407C150.978,55.651 150.714,57.103 150.12,58.819C148.008,64.495 144.708,70.5 141.144,75.054C137.053,80.268 133.225,83.699 126.361,88.187C127.747,88.517 128.803,89.045 129.793,89.837C130.189,90.233 130.783,90.101 131.245,89.771C136.657,86.141 140.484,82.512 144.576,77.232C148.272,72.546 151.44,66.672 154.278,60.205C155.069,58.489 155.531,57.631 156.191,57.037C156.785,56.509 156.719,55.915 156.125,55.453C155.069,54.661 152.892,53.869 151.242,53.407Z" style="fill:rgb(183,198,200);fill-rule:nonzero;stroke:rgb(183,198,200);stroke-width:1.7px;"/>
        <path d="M201.069,46.676C201.993,45.356 202.719,44.102 203.709,42.518C204.236,41.66 204.962,40.736 205.688,40.274C206.414,39.812 206.348,39.02 205.688,38.558C204.698,37.766 202.719,36.842 200.739,36.248C200.409,38.888 199.551,41 197.439,44.498C193.413,51.097 188.529,57.037 180.214,63.703C181.6,63.967 182.854,64.561 183.58,65.089C184.306,65.617 184.9,65.617 185.626,64.957C190.311,60.997 193.809,56.905 198.693,50.833L217.7,50.305C213.938,58.951 210.242,64.759 205.292,70.5C199.023,77.628 193.149,82.71 183.448,87.989C184.966,88.451 186.22,89.045 187.144,89.903C187.605,90.299 188.067,90.431 188.595,90.101C196.185,85.745 203.247,79.806 209.186,73.008C213.674,67.86 217.898,60.997 221.923,52.417C222.451,51.295 222.979,50.701 223.639,50.108C224.167,49.58 224.299,48.92 223.507,48.128C222.715,47.336 221.659,46.478 220.867,45.95C220.141,45.488 219.614,45.356 219.152,45.686C218.426,46.214 217.832,46.346 215.852,46.412L201.069,46.676Z" style="fill:rgb(183,198,200);fill-rule:nonzero;stroke:rgb(183,198,200);stroke-width:1.7px;"/>
        <path d="M258.353,47.798C252.612,47.798 248.058,47.732 243.702,47.27C243.768,48.92 244.032,50.569 244.23,51.889C244.362,52.483 244.56,52.681 245.286,52.615C248.916,52.351 253.007,52.087 258.353,52.087L287.391,51.955C282.97,57.763 275.974,65.023 269.11,70.698C266.075,67.926 262.775,65.287 258.947,62.383C258.353,62.053 258.155,61.987 257.693,62.383C256.967,63.043 255.845,64.165 255.053,64.957C262.709,70.434 269.506,77.1 275.446,84.755C275.842,85.349 276.04,85.283 276.568,84.953C277.426,84.359 278.284,83.633 279.01,82.842C279.472,82.314 279.472,81.984 279.01,81.456C276.964,78.816 274.456,75.978 272.212,73.734C279.208,68.124 286.137,61.063 291.021,55.321C292.473,53.605 293.133,53.275 294.123,52.549C294.783,52.087 295.047,51.427 294.453,50.569C293.661,49.448 292.737,48.458 291.615,47.468C291.153,47.006 290.559,46.94 289.965,47.27C289.371,47.6 288.117,47.798 285.148,47.798L258.353,47.798Z" style="fill:rgb(183,198,200);fill-rule:nonzero;stroke:rgb(183,198,200);stroke-width:1.7px;"/>
        <path d="M345.072,65.881C349.494,65.881 354.377,65.881 359.327,66.013C360.119,66.079 360.317,65.947 360.317,65.221C360.383,64.165 360.383,62.779 360.317,61.789C360.317,61.063 360.119,60.931 359.327,60.997C354.311,61.129 349.428,61.195 344.874,61.195L324.613,61.195C319.135,61.195 314.054,61.129 310.028,60.601C310.16,62.383 310.424,64.495 310.688,65.617C310.886,66.277 311.216,66.541 311.81,66.541C312.206,66.541 314.978,65.881 320.719,65.881L345.072,65.881Z" style="fill:rgb(183,198,200);fill-rule:nonzero;stroke:rgb(183,198,200);stroke-width:1.7px;"/>
        <path d="M399.057,46.676C399.98,45.356 400.706,44.102 401.696,42.518C402.224,41.66 402.95,40.736 403.676,40.274C404.402,39.812 404.336,39.02 403.676,38.558C402.686,37.766 400.706,36.842 398.727,36.248C398.397,38.888 397.539,41 395.427,44.498C391.401,51.097 386.517,57.037 378.202,63.703C379.588,63.967 380.842,64.561 381.568,65.089C382.294,65.617 382.888,65.617 383.613,64.957C388.299,60.997 391.797,56.905 396.681,50.833L415.688,50.305C411.926,58.951 408.23,64.759 403.28,70.5C397.011,77.628 391.137,82.71 381.436,87.989C382.954,88.451 384.207,89.045 385.131,89.903C385.593,90.299 386.055,90.431 386.583,90.101C394.173,85.745 401.234,79.806 407.174,73.008C411.662,67.86 415.886,60.997 419.911,52.417C420.439,51.295 420.967,50.701 421.627,50.108C422.155,49.58 422.287,48.92 421.495,48.128C420.703,47.336 419.647,46.478 418.855,45.95C418.129,45.488 417.601,45.356 417.139,45.686C416.413,46.214 415.82,46.346 413.84,46.412L399.057,46.676Z" style="fill:rgb(183,198,200);fill-rule:nonzero;stroke:rgb(183,198,200);stroke-width:1.7px;"/>
    </g>
    <g transform="matrix(0.140677,0,0,0.140677,17.9867,7.99336)">
        <path d="M37.246,0L37.246,479.924C37.246,491.394 43.368,501.988 53.298,507.71C63.243,513.442 75.471,513.427 85.401,507.681L223.846,427.483C243.735,415.969 268.266,415.969 288.155,427.483L426.608,507.681C436.53,513.427 448.766,513.442 458.696,507.71C468.634,501.987 474.755,491.394 474.755,479.924L474.755,0L37.246,0ZM424.996,449.243L424.996,49.759L87.005,49.759L87.005,449.246L198.916,384.419C234.225,363.978 277.776,363.978 313.085,384.419L424.996,449.243Z" style="fill:rgb(183,198,200);"/>
    </g>
</svg>
