<?xml version="1.0" encoding="UTF-8" standalone="no"?>
<!DOCTYPE svg PUBLIC "-//W3C//DTD SVG 1.1//EN" "http://www.w3.org/Graphics/SVG/1.1/DTD/svg11.dtd">
<svg width="100%" height="100%" viewBox="0 0 108 109" version="1.1" xmlns="http://www.w3.org/2000/svg" xmlns:xlink="http://www.w3.org/1999/xlink" xml:space="preserve" xmlns:serif="http://www.serif.com/" style="fill-rule:evenodd;clip-rule:evenodd;stroke-linejoin:round;stroke-miterlimit:2;">
    <g transform="matrix(0.198265,0,0,0.212134,7.09534,87.8368)">
        <path d="M188.175,63.967C188.175,59.281 188.307,57.631 188.307,57.235C188.307,56.773 188.241,56.707 187.779,56.707C187.383,56.707 185.073,56.839 178.539,56.839L157.553,56.839C150.953,56.839 148.643,56.707 148.313,56.707C147.785,56.707 147.719,56.773 147.719,57.235C147.719,57.631 147.851,59.281 147.851,63.967L147.851,75.516C147.851,80.136 147.719,81.786 147.719,82.182C147.719,82.644 147.785,82.71 148.313,82.71C148.643,82.71 150.953,82.578 157.553,82.578L178.473,82.578C185.007,82.578 187.383,82.71 187.779,82.71C188.241,82.71 188.307,82.644 188.307,82.182C188.307,81.786 188.175,80.136 188.175,75.516L188.175,63.967ZM184.281,79.41L151.679,79.41L151.679,74.658L184.281,74.658L184.281,79.41ZM184.281,71.754L151.679,71.754L151.679,67.266L184.281,67.266L184.281,71.754ZM184.281,64.363L151.679,64.363L151.679,60.007L184.281,60.007L184.281,64.363ZM166.99,44.63C166.99,44.168 166.924,44.102 166.462,44.102C166.132,44.102 164.482,44.234 159.268,44.234L147.455,44.234L147.455,40.406C154.121,39.68 158.279,39.02 163.162,37.832C164.152,37.568 164.812,37.568 165.472,37.502C166,37.436 166.33,37.172 166.33,36.908C166.33,36.512 166.132,36.314 165.802,35.918C165.076,35.06 164.284,34.334 163.162,33.477C162.304,34.07 161.182,34.532 159.994,34.862C156.431,35.918 152.537,36.644 147.521,37.106C146.201,36.578 144.947,36.248 143.429,35.984C143.693,37.568 143.759,39.746 143.759,42.122C143.759,47.336 143.231,52.219 138.018,56.773C138.81,57.169 139.536,57.565 140.328,58.357C140.79,58.819 141.054,59.083 141.318,59.083C141.516,59.083 141.78,58.819 142.176,58.357C145.343,54.661 146.663,50.965 147.191,47.402L155.309,47.402L155.309,50.437C155.309,53.341 155.177,54.595 155.177,54.925C155.177,55.453 155.243,55.519 155.705,55.519L158.543,55.519C159.005,55.519 159.07,55.453 159.07,54.925C159.07,54.595 158.939,53.341 158.939,50.437L158.939,47.402L159.268,47.402C164.482,47.402 166.132,47.534 166.462,47.534C166.924,47.534 166.99,47.468 166.99,47.006L166.99,44.63ZM196.49,44.63C196.49,44.168 196.424,44.102 195.962,44.102C195.632,44.102 193.718,44.234 187.911,44.234L173.92,44.234C173.986,43.772 173.986,43.31 173.986,42.782L173.986,40.274C180.717,39.614 185.337,38.822 189.957,37.7C190.947,37.502 191.673,37.436 192.398,37.436C192.926,37.436 193.19,37.172 193.19,36.908C193.19,36.578 193.124,36.446 192.728,35.984C191.87,34.994 191.079,34.202 190.089,33.411C189.231,34.004 188.241,34.4 187.119,34.73C183.819,35.72 179.001,36.578 174.118,37.106C172.732,36.578 171.544,36.182 170.026,35.918C170.356,37.436 170.29,39.284 170.29,42.122C170.29,46.478 169.102,50.767 164.878,53.869C165.736,54.265 166.528,54.727 167.122,55.255C167.584,55.651 167.848,55.915 168.112,55.915C168.376,55.915 168.64,55.651 169.102,55.189C171.412,52.945 172.798,50.24 173.458,47.402L182.235,47.402L182.235,50.305C182.235,53.209 182.103,54.463 182.103,54.859C182.103,55.321 182.169,55.387 182.631,55.387L185.469,55.387C185.931,55.387 185.997,55.321 185.997,54.859C185.997,54.463 185.865,53.209 185.865,50.305L185.865,47.402L187.911,47.402C193.718,47.402 195.632,47.534 195.962,47.534C196.424,47.534 196.49,47.468 196.49,47.006L196.49,44.63ZM160.588,85.877C160.588,85.613 160.522,85.415 160.06,85.085C159.268,84.491 158.015,83.699 156.893,83.105C156.233,83.831 155.507,84.425 154.649,84.953C150.821,87.065 144.485,88.913 138.81,89.771C139.404,90.431 140.064,91.355 140.46,92.147C141.054,93.335 141.12,93.401 142.44,93.137C148.313,91.949 153.923,89.573 157.883,87.395C158.741,86.933 159.202,86.735 159.862,86.603C160.39,86.471 160.588,86.207 160.588,85.877ZM175.833,85.283C175.24,85.811 175.24,86.009 175.701,86.273C180.519,89.375 187.119,91.949 193.058,93.137C194.444,93.401 194.51,93.335 195.038,92.081C195.434,91.223 195.896,90.431 196.556,89.639C189.627,88.715 183.291,86.603 178.407,83.567C178.011,83.369 177.813,83.369 177.285,83.897L175.833,85.283Z" style="fill:rgb(183,198,200);fill-rule:nonzero;stroke:rgb(183,198,200);stroke-width:1.7px;"/>
        <path d="M326.172,45.686C326.172,39.284 326.304,36.644 326.304,36.248C326.304,35.786 326.238,35.72 325.776,35.72C325.446,35.72 323.73,35.852 318.649,35.852L310.465,35.852C305.318,35.852 303.668,35.72 303.338,35.72C302.81,35.72 302.744,35.786 302.744,36.248C302.744,36.644 302.876,37.898 302.876,41.924L302.876,50.437C302.876,54.529 302.744,55.783 302.744,56.113C302.744,56.575 302.81,56.641 303.338,56.641C303.668,56.641 305.318,56.509 310.465,56.509L322.279,56.509L322.279,84.491C322.279,87.131 321.685,87.659 318.781,87.659C316.999,87.659 315.481,87.593 313.765,87.395C314.293,88.253 314.623,89.045 314.953,90.299C315.283,91.553 315.283,91.553 316.471,91.553C321.751,91.553 323.4,91.289 324.654,90.233C325.908,89.243 326.37,88.121 326.37,85.217C326.37,82.71 326.172,79.278 326.172,75.648L326.172,45.686ZM322.279,53.341L306.637,53.341L306.637,47.6L322.279,47.6L322.279,53.341ZM322.279,44.432L306.637,44.432L306.637,39.086L322.279,39.086L322.279,44.432ZM296.408,42.32C296.408,38.294 296.54,36.644 296.54,36.248C296.54,35.786 296.474,35.72 296.012,35.72C295.682,35.72 294.032,35.852 289.413,35.852L281.823,35.852C276.939,35.852 274.761,35.72 274.365,35.72C273.903,35.72 273.837,35.786 273.837,36.248C273.837,36.644 273.969,40.67 273.969,50.108L273.969,78.156C273.969,87.593 273.837,91.487 273.837,91.883C273.837,92.345 273.903,92.411 274.365,92.411L277.467,92.411C277.929,92.411 277.995,92.345 277.995,91.883C277.995,91.487 277.863,87.593 277.863,78.156L277.863,56.509L289.413,56.509C294.032,56.509 295.682,56.641 296.012,56.641C296.474,56.641 296.54,56.575 296.54,56.113C296.54,55.783 296.408,54.133 296.408,50.042L296.408,42.32ZM292.646,53.341L277.863,53.341L277.863,47.6L292.646,47.6L292.646,53.341ZM292.646,44.432L277.863,44.432L277.863,39.086L292.646,39.086L292.646,44.432ZM310.597,68.652C310.597,65.155 310.729,63.637 310.729,63.241C310.729,62.779 310.663,62.713 310.201,62.713C309.805,62.713 308.221,62.845 303.404,62.845L296.012,62.845C291.128,62.845 289.611,62.713 289.215,62.713C288.753,62.713 288.687,62.779 288.687,63.241C288.687,63.637 288.819,65.155 288.819,69.774L288.819,74.394C288.819,83.105 288.687,84.557 288.687,84.887C288.687,85.349 288.753,85.415 289.215,85.415L292.052,85.415C292.514,85.415 292.58,85.349 292.58,84.887L292.58,80.466L306.835,80.466L306.835,83.699C306.835,84.161 306.901,84.227 307.429,84.227L310.201,84.227C310.663,84.227 310.729,84.161 310.729,83.699C310.729,83.369 310.597,81.984 310.597,73.602L310.597,68.652ZM306.835,77.166L292.58,77.166L292.58,66.145L306.835,66.145L306.835,77.166Z" style="fill:rgb(183,198,200);fill-rule:nonzero;stroke:rgb(183,198,200);stroke-width:1.7px;"/>
    </g>
    <g transform="matrix(0.189453,0,0,0.189453,5.50042,-6.7917)">
        <path d="M511.981,222.088C511.451,172.255 491.953,125.511 457.032,90.462C422,55.247 375.329,35.849 325.55,35.849L186.431,35.849C83.64,35.868 0,119.489 0,222.253C0,325.026 83.64,408.665 186.431,408.693L289.241,408.693C291.945,408.693 293.371,409.835 294.084,410.795C295.819,413.115 295.052,416.369 294.778,417.291C293.699,421.12 290.976,426.446 285.66,435.089C281.566,441.869 277.765,447.58 276.961,448.795C271.223,457.402 269.25,464.693 271.388,469.335C272.996,472.834 277.034,474.991 283.357,475.74C285.495,475.986 288.455,476.151 291.27,476.151C292.75,476.151 294.175,476.105 295.436,476.005C308.557,474.881 326.283,472.797 347.005,466.576C377.211,457.494 420.503,438.242 455.278,398.076C492.483,355.233 512.11,295.815 512,226.237L511.981,222.088ZM454.272,338.64C435.796,375.425 406.832,403.475 368.183,422.032C355.117,428.272 341.119,433.253 326.555,436.834L322.809,437.756L325.239,432.438C326.135,430.52 327.03,428.61 327.743,426.609C329.095,422.497 330.429,417.983 330.484,412.118C330.484,407.239 329.405,402.304 327.359,397.855C324.069,390.673 317.784,384.35 310.053,380.513C302.195,376.566 292.913,374.647 281.691,374.647L186.429,374.647C145.751,374.647 107.486,358.794 78.667,330.013C49.885,301.213 34.043,262.938 34.024,222.251C34.043,181.591 49.886,143.326 78.667,114.508C107.485,85.736 145.751,69.882 186.429,69.882L325.55,69.882C366.082,69.891 404.219,85.735 432.91,114.489C461.509,143.234 477.499,181.572 477.937,222.425L477.974,226.235C477.936,269.5 469.97,307.318 454.272,338.64Z" style="fill:rgb(183,198,200);fill-rule:nonzero;"/>
    </g>
    <g transform="matrix(3.0555,0,0,3.26925,-65.7161,-86.5949)">
        <path d="M45.517,43.458C45.378,43.8 45.127,44.088 44.765,44.322C44.402,44.557 43.981,44.674 43.501,44.674C42.818,44.674 42.237,44.512 41.757,44.186C41.277,43.861 40.845,43.453 40.461,42.962C39.991,43.069 39.431,43.122 38.781,43.122C37.938,43.122 37.154,43.021 36.429,42.818C35.703,42.616 35.077,42.28 34.549,41.81C34.021,41.341 33.605,40.728 33.301,39.97C32.997,39.213 32.845,38.28 32.845,37.17C32.845,36.178 32.962,35.285 33.197,34.49C33.431,33.696 33.799,33.018 34.301,32.458C34.802,31.898 35.442,31.469 36.221,31.17C36.999,30.872 37.933,30.722 39.021,30.722C39.874,30.722 40.666,30.829 41.397,31.042C42.127,31.256 42.757,31.605 43.285,32.09C43.813,32.576 44.226,33.213 44.525,34.002C44.823,34.792 44.973,35.762 44.973,36.914C44.973,38.194 44.743,39.296 44.285,40.218C43.826,41.141 43.127,41.858 42.189,42.37C42.477,42.68 42.786,42.928 43.117,43.114C43.447,43.301 43.805,43.394 44.189,43.394C44.594,43.394 44.893,43.25 45.085,42.962L45.517,43.458ZM41.053,40.77C41.607,40.418 41.991,39.914 42.205,39.258C42.418,38.602 42.525,37.858 42.525,37.026C42.525,36.034 42.442,35.218 42.277,34.578C42.111,33.938 41.879,33.432 41.581,33.058C41.282,32.685 40.922,32.424 40.501,32.274C40.079,32.125 39.613,32.05 39.101,32.05C38.439,32.05 37.869,32.149 37.389,32.346C36.909,32.544 36.514,32.829 36.205,33.202C35.895,33.576 35.669,34.034 35.525,34.578C35.381,35.122 35.309,35.741 35.309,36.434C35.309,37.17 35.349,37.81 35.429,38.354C35.509,38.898 35.623,39.368 35.773,39.762C36.082,39.389 36.407,39.13 36.749,38.986C37.09,38.842 37.442,38.77 37.805,38.77C38.146,38.77 38.469,38.821 38.773,38.922C39.077,39.024 39.362,39.165 39.629,39.346C39.895,39.528 40.146,39.738 40.381,39.978C40.615,40.218 40.839,40.482 41.053,40.77ZM36.045,40.514C36.343,41.026 36.722,41.378 37.181,41.57C37.639,41.762 38.173,41.858 38.781,41.858C38.941,41.858 39.095,41.853 39.245,41.842C39.394,41.832 39.538,41.81 39.677,41.778C39.271,41.192 38.887,40.73 38.525,40.394C38.162,40.058 37.73,39.89 37.229,39.89C37.047,39.89 36.855,39.938 36.653,40.034C36.45,40.13 36.247,40.29 36.045,40.514Z" style="fill:rgb(183,198,200);fill-rule:nonzero;stroke:rgb(183,198,200);stroke-width:0.11px;"/>
    </g>
</svg>
