<?xml version="1.0" encoding="UTF-8" standalone="no"?><!DOCTYPE svg PUBLIC "-//W3C//DTD SVG 1.1//EN" "http://www.w3.org/Graphics/SVG/1.1/DTD/svg11.dtd"><svg width="100%" height="100%" viewBox="0 0 43 43" version="1.1" xmlns="http://www.w3.org/2000/svg" xmlns:xlink="http://www.w3.org/1999/xlink" xml:space="preserve" xmlns:serif="http://www.serif.com/" style="fill-rule:evenodd;clip-rule:evenodd;stroke-linejoin:round;stroke-miterlimit:2;"><path d="M42.76,21.63c-0,-11.813 -9.519,-21.39 -21.26,-21.39c-11.741,0 -21.26,9.577 -21.26,21.39c0,10.676 7.775,19.525 17.938,21.13l0,-14.947l-5.398,-0l0,-6.183l5.398,-0l0,-4.713c0,-5.36 3.174,-8.321 8.03,-8.321c2.326,-0 4.759,0.417 4.759,0.417l0,5.264l-2.681,0c-2.641,0 -3.464,1.649 -3.464,3.341l-0,4.012l5.896,-0l-0.942,6.183l-4.954,-0l-0,14.947c10.163,-1.605 17.938,-10.454 17.938,-21.13Z" style="fill:#545454;fill-rule:nonzero;"/></svg>