<?xml version="1.0" encoding="UTF-8" standalone="no"?><!DOCTYPE svg PUBLIC "-//W3C//DTD SVG 1.1//EN" "http://www.w3.org/Graphics/SVG/1.1/DTD/svg11.dtd"><svg width="100%" height="100%" viewBox="0 0 43 43" version="1.1" xmlns="http://www.w3.org/2000/svg" xmlns:xlink="http://www.w3.org/1999/xlink" xml:space="preserve" xmlns:serif="http://www.serif.com/" style="fill-rule:evenodd;clip-rule:evenodd;stroke-linejoin:round;stroke-miterlimit:2;"><path d="M21.5,0.24c11.734,0 21.26,9.526 21.26,21.26c-0,11.734 -9.526,21.26 -21.26,21.26c-11.734,-0 -21.26,-9.526 -21.26,-21.26c0,-11.734 9.526,-21.26 21.26,-21.26Zm14.034,20.195c-0,-6.279 -6.296,-11.388 -14.034,-11.388c-7.738,-0 -14.034,5.109 -14.034,11.388c0,5.63 4.993,10.345 11.737,11.236c0.457,0.099 1.079,0.302 1.236,0.692c0.142,0.355 0.093,0.911 0.045,1.269c0,0 -0.164,0.991 -0.2,1.202c-0.061,0.354 -0.282,1.387 1.216,0.756c1.498,-0.631 8.082,-4.759 11.026,-8.148l-0,0c2.034,-2.23 3.008,-4.494 3.008,-7.007Zm-19.258,2.095l-2.675,0l-0,-4.856c-0,-0.151 -0.122,-0.273 -0.273,-0.273l-0.985,-0c-0.15,-0 -0.273,0.122 -0.273,0.273l-0,6.114c-0,0.074 0.029,0.14 0.076,0.189c0.001,0.002 0.003,0.003 0.004,0.004c0.001,0.002 0.003,0.003 0.004,0.004c0.049,0.047 0.116,0.076 0.189,0.076l3.933,0c0.15,0 0.273,-0.122 0.273,-0.273l-0,-0.984c-0,-0.151 -0.123,-0.274 -0.273,-0.274Zm14.584,-3.598c0.151,0 0.273,-0.122 0.273,-0.273l0,-0.985c0,-0.151 -0.122,-0.273 -0.273,-0.273l-3.933,-0c-0.074,-0 -0.14,0.029 -0.189,0.077c-0.001,0.001 -0.003,0.002 -0.004,0.003c-0.001,0.001 -0.003,0.003 -0.004,0.005c-0.047,0.048 -0.076,0.115 -0.076,0.188l0,6.115c0,0.073 0.03,0.139 0.077,0.189c0.001,0.001 0.002,0.002 0.003,0.003c0.002,0.002 0.003,0.003 0.005,0.004c0.048,0.047 0.115,0.076 0.188,0.076l3.933,0c0.151,0 0.273,-0.122 0.273,-0.273l0,-0.984c0,-0.151 -0.122,-0.274 -0.273,-0.274l-2.674,0l-0,-1.033l2.674,-0c0.151,-0 0.273,-0.122 0.273,-0.274l0,-0.984c0,-0.151 -0.122,-0.274 -0.273,-0.274l-2.674,0l-0,-1.033l2.674,0Zm-12.211,-1.531l-0.985,-0c-0.151,-0 -0.273,0.122 -0.273,0.273l-0,6.115c-0,0.15 0.122,0.272 0.273,0.272l0.985,0c0.151,0 0.273,-0.122 0.273,-0.272l-0,-6.115c-0,-0.151 -0.122,-0.273 -0.273,-0.273Zm6.775,-0l-0.984,-0c-0.151,-0 -0.274,0.122 -0.274,0.273l0,3.633l-2.802,-3.785l-0.023,-0.029l-0.021,-0.022c-0.005,-0.004 -0.01,-0.008 -0.015,-0.012c-0.002,-0.002 -0.005,-0.004 -0.007,-0.005c-0.005,-0.004 -0.01,-0.007 -0.014,-0.01c-0.003,-0.002 -0.006,-0.003 -0.009,-0.005l-0.023,-0.012c-0.005,-0.003 -0.01,-0.005 -0.016,-0.007c-0.002,-0.001 -0.005,-0.002 -0.008,-0.003c-0.006,-0.002 -0.011,-0.004 -0.017,-0.006l-0.025,-0.005c-0.004,-0.001 -0.008,-0.002 -0.011,-0.002l-0.029,-0.003c-0.003,0 -0.006,-0 -0.009,-0l-0.985,-0c-0.151,-0 -0.273,0.122 -0.273,0.273l-0,6.115c-0,0.15 0.122,0.272 0.273,0.272l0.985,0c0.151,0 0.273,-0.122 0.273,-0.272l0,-3.632l2.806,3.789c0.019,0.027 0.043,0.05 0.069,0.068c0.001,0 0.002,0.001 0.003,0.002c0.005,0.003 0.011,0.007 0.017,0.01c0.002,0.001 0.005,0.003 0.008,0.004l0.034,0.015l0.023,0.007c0.022,0.006 0.045,0.009 0.07,0.009l0.984,0c0.151,0 0.274,-0.122 0.274,-0.272l-0,-6.115c-0,-0.151 -0.123,-0.273 -0.274,-0.273Z" style="fill:#545454;"/></svg>