<?xml version="1.0" encoding="UTF-8" standalone="no"?><!DOCTYPE svg PUBLIC "-//W3C//DTD SVG 1.1//EN" "http://www.w3.org/Graphics/SVG/1.1/DTD/svg11.dtd"><svg width="100%" height="100%" viewBox="0 0 43 43" version="1.1" xmlns="http://www.w3.org/2000/svg" xmlns:xlink="http://www.w3.org/1999/xlink" xml:space="preserve" xmlns:serif="http://www.serif.com/" style="fill-rule:evenodd;clip-rule:evenodd;stroke-linejoin:round;stroke-miterlimit:2;"><path d="M21.5,0.24c11.734,0 21.26,9.526 21.26,21.26c-0,11.734 -9.526,21.26 -21.26,21.26c-11.734,-0 -21.26,-9.526 -21.26,-21.26c0,-11.734 9.526,-21.26 21.26,-21.26Zm-4.231,33.166c9.841,0 15.223,-8.153 15.223,-15.223c0,-0.232 -0.005,-0.462 -0.015,-0.691c1.044,-0.756 1.953,-1.698 2.669,-2.771c-0.959,0.426 -1.991,0.713 -3.073,0.842c1.105,-0.662 1.953,-1.71 2.353,-2.96c-1.034,0.613 -2.179,1.059 -3.397,1.299c-0.977,-1.04 -2.367,-1.69 -3.906,-1.69c-2.955,-0 -5.351,2.396 -5.351,5.35c-0,0.42 0.047,0.828 0.138,1.22c-4.446,-0.224 -8.389,-2.353 -11.028,-5.59c-0.46,0.79 -0.725,1.709 -0.725,2.689c0,1.856 0.945,3.495 2.381,4.454c-0.877,-0.027 -1.702,-0.269 -2.423,-0.67c-0.001,0.023 -0.001,0.045 -0.001,0.069c-0,2.591 1.844,4.755 4.292,5.245c-0.449,0.122 -0.922,0.189 -1.41,0.189c-0.345,-0 -0.68,-0.035 -1.006,-0.097c0.681,2.125 2.657,3.672 4.999,3.716c-1.832,1.435 -4.139,2.29 -6.646,2.29c-0.431,0 -0.857,-0.024 -1.276,-0.074c2.368,1.518 5.179,2.403 8.202,2.403Z" style="fill:#545454;"/></svg>