<?xml version="1.0" encoding="UTF-8" standalone="no"?><!DOCTYPE svg PUBLIC "-//W3C//DTD SVG 1.1//EN" "http://www.w3.org/Graphics/SVG/1.1/DTD/svg11.dtd"><svg width="100%" height="100%" viewBox="0 0 43 43" version="1.1" xmlns="http://www.w3.org/2000/svg" xmlns:xlink="http://www.w3.org/1999/xlink" xml:space="preserve" xmlns:serif="http://www.serif.com/" style="fill-rule:evenodd;clip-rule:evenodd;stroke-linejoin:round;stroke-miterlimit:2;"><path d="M21.5,0.24c11.734,0 21.26,9.526 21.26,21.26c-0,11.734 -9.526,21.26 -21.26,21.26c-11.734,-0 -21.26,-9.526 -21.26,-21.26c0,-11.734 9.526,-21.26 21.26,-21.26Zm0,9.354c-3.234,-0 -3.639,0.013 -4.909,0.071c-1.267,0.058 -2.133,0.259 -2.89,0.554c-0.783,0.304 -1.447,0.711 -2.109,1.373c-0.662,0.662 -1.069,1.326 -1.373,2.109c-0.295,0.757 -0.496,1.623 -0.554,2.89c-0.058,1.27 -0.071,1.675 -0.071,4.909c-0,3.234 0.013,3.639 0.071,4.909c0.058,1.267 0.259,2.133 0.554,2.89c0.304,0.783 0.711,1.447 1.373,2.109c0.662,0.662 1.326,1.069 2.109,1.373c0.757,0.295 1.623,0.496 2.89,0.554c1.27,0.058 1.675,0.071 4.909,0.071c3.234,0 3.639,-0.013 4.909,-0.071c1.267,-0.058 2.133,-0.259 2.89,-0.554c0.783,-0.304 1.447,-0.711 2.109,-1.373c0.662,-0.662 1.069,-1.326 1.373,-2.109c0.295,-0.757 0.496,-1.623 0.554,-2.89c0.058,-1.27 0.071,-1.675 0.071,-4.909c0,-3.234 -0.013,-3.639 -0.071,-4.909c-0.058,-1.267 -0.259,-2.133 -0.554,-2.89c-0.304,-0.783 -0.711,-1.447 -1.373,-2.109c-0.662,-0.662 -1.326,-1.069 -2.109,-1.373c-0.757,-0.295 -1.623,-0.496 -2.89,-0.554c-1.27,-0.058 -1.675,-0.071 -4.909,-0.071Zm0,2.145c3.179,-0 3.556,0.012 4.811,0.069c1.161,0.053 1.792,0.247 2.211,0.41c0.556,0.216 0.952,0.474 1.369,0.891c0.417,0.417 0.675,0.813 0.891,1.369c0.163,0.419 0.357,1.05 0.41,2.211c0.057,1.255 0.069,1.632 0.069,4.811c0,3.179 -0.012,3.556 -0.069,4.811c-0.053,1.161 -0.247,1.792 -0.41,2.211c-0.216,0.556 -0.474,0.952 -0.891,1.369c-0.417,0.417 -0.813,0.675 -1.369,0.891c-0.419,0.163 -1.05,0.357 -2.211,0.41c-1.255,0.057 -1.632,0.069 -4.811,0.069c-3.179,0 -3.556,-0.012 -4.811,-0.069c-1.161,-0.053 -1.792,-0.247 -2.211,-0.41c-0.556,-0.216 -0.952,-0.474 -1.369,-0.891c-0.417,-0.417 -0.675,-0.813 -0.891,-1.369c-0.163,-0.419 -0.357,-1.05 -0.41,-2.211c-0.057,-1.255 -0.069,-1.632 -0.069,-4.811c-0,-3.179 0.012,-3.556 0.069,-4.811c0.053,-1.161 0.247,-1.792 0.41,-2.211c0.216,-0.556 0.474,-0.952 0.891,-1.369c0.417,-0.417 0.813,-0.675 1.369,-0.891c0.419,-0.163 1.05,-0.357 2.211,-0.41c1.255,-0.057 1.632,-0.069 4.811,-0.069Zm0,3.647c-3.377,-0 -6.114,2.737 -6.114,6.114c-0,3.377 2.737,6.114 6.114,6.114c3.377,0 6.114,-2.737 6.114,-6.114c0,-3.377 -2.737,-6.114 -6.114,-6.114Zm0,10.083c-2.192,-0 -3.969,-1.777 -3.969,-3.969c0,-2.192 1.777,-3.969 3.969,-3.969c2.192,0 3.969,1.777 3.969,3.969c-0,2.192 -1.777,3.969 -3.969,3.969Zm7.784,-10.325c0,0.789 -0.639,1.429 -1.428,1.429c-0.789,0 -1.429,-0.64 -1.429,-1.429c-0,-0.789 0.64,-1.428 1.429,-1.428c0.789,-0 1.428,0.639 1.428,1.428Z" style="fill:#545454;"/></svg>